<svg version="1.1" id="Layer_1" xmlns="http://www.w3.org/2000/svg" xmlns:xlink="http://www.w3.org/1999/xlink" x="0px" y="0px"
	 width="100%" viewBox="0 0 621 282" enable-background="new 0 0 621 282" xml:space="preserve">
<path fill="#FEFEFE" opacity="1.000000" stroke="none" 
	d="
M471.000000,283.000000 
	C314.043304,283.000000 157.586609,283.000000 1.064952,283.000000 
	C1.064952,189.069351 1.064952,95.138641 1.064952,1.103964 
	C207.999969,1.103964 414.999969,1.103964 621.978943,1.103964 
	C621.978943,95.080078 621.978943,189.040039 621.978943,283.000000 
	C571.805237,283.000000 521.652649,283.000000 471.000000,283.000000 
M187.148041,46.965874 
	C187.148041,33.394955 187.148041,19.824034 187.148041,6.397745 
	C125.709801,6.397745 65.157654,6.397745 4.620834,6.397745 
	C4.620834,67.386909 4.620834,127.952095 4.620834,188.892273 
	C14.981844,188.892273 24.958281,188.892273 35.106503,189.829880 
	C35.106503,219.758240 35.106503,249.686584 35.106503,279.792786 
	C96.359863,279.792786 157.031769,279.792786 218.219803,279.792786 
	C218.219803,263.351288 218.219803,247.228058 219.127441,231.094360 
	C249.089188,231.094360 279.050934,231.094360 309.233429,231.094360 
	C309.233429,170.017639 309.233429,109.298859 309.233429,48.163673 
	C307.141876,48.163673 305.344574,48.163677 303.547272,48.163677 
	C268.730591,48.163677 233.913895,48.172504 199.097198,48.151596 
	C195.107010,48.149200 191.116928,47.980610 187.148041,46.965874 
M584.812866,185.765900 
	C585.601746,188.969894 586.390625,192.173889 587.158936,195.294250 
	C596.760315,195.294250 605.981079,195.294250 615.637756,195.294250 
	C615.396301,194.085709 615.296326,193.304276 615.082581,192.555313 
	C603.546814,152.137604 591.973999,111.730423 580.519470,71.289726 
	C579.764709,68.624962 578.477295,68.024956 575.944336,68.065437 
	C567.286865,68.203819 558.622803,68.251045 549.967896,68.048889 
	C546.804932,67.975014 545.438049,68.807480 544.513672,72.080261 
	C533.808655,109.979980 522.889099,147.819107 512.042236,185.678818 
	C511.150940,188.789825 510.375000,191.933884 509.444305,195.444092 
	C519.306946,195.444092 528.425049,195.444092 537.938049,195.444092 
	C539.966431,187.700119 542.201294,179.883636 544.002625,171.968475 
	C544.820374,168.374802 546.390259,167.074921 550.088745,167.396515 
	C554.220825,167.755814 558.408997,167.427856 562.571289,167.492554 
	C568.206055,167.580139 575.538147,165.657593 579.010437,168.467392 
	C582.711426,171.462250 582.761658,178.968323 584.407776,184.504272 
	C584.455139,184.663422 584.525574,184.815689 584.812866,185.765900 
M362.638397,162.960968 
	C365.370636,172.723267 368.266998,182.444305 370.737579,192.272385 
	C371.502380,195.315048 373.004120,195.749252 375.644958,195.714172 
	C384.302704,195.599121 392.968781,195.484116 401.619476,195.755981 
	C405.288483,195.871292 406.875824,194.667664 407.862000,191.128647 
	C417.941772,154.957092 428.187439,118.831787 438.373169,82.689728 
	C439.694763,78.000275 440.939423,73.289146 442.280090,68.366592 
	C431.907257,68.366592 422.303101,68.366592 412.413513,68.366592 
	C404.859802,101.857468 397.345642,135.172791 389.831512,168.488113 
	C389.422302,168.476059 389.013123,168.463989 388.603943,168.451935 
	C381.096283,135.108170 373.588623,101.764404 366.063324,68.342270 
	C356.022125,68.342270 346.424500,68.342270 336.241486,68.342270 
	C344.992828,99.873100 353.644257,131.044022 362.638397,162.960968 
M464.248138,68.939186 
	C464.129028,70.588737 463.906708,72.238235 463.905853,73.887848 
	C463.886292,112.500175 463.890686,151.112503 463.890686,189.724838 
	C463.890686,191.503616 463.890686,193.282410 463.890686,195.324768 
	C473.708618,195.324768 482.907379,195.324768 492.226501,195.324768 
	C492.226501,152.776337 492.226501,110.575630 492.226501,68.309738 
	C482.894958,68.309738 473.919708,68.309738 464.248138,68.939186 
z"/>
<path fill="#404040" opacity="1.000000" stroke="none" 
	d="
M584.699036,185.368530 
	C584.525574,184.815689 584.455139,184.663422 584.407776,184.504272 
	C582.761658,178.968323 582.711426,171.462250 579.010437,168.467392 
	C575.538147,165.657593 568.206055,167.580139 562.571289,167.492554 
	C558.408997,167.427856 554.220825,167.755814 550.088745,167.396515 
	C546.390259,167.074921 544.820374,168.374802 544.002625,171.968475 
	C542.201294,179.883636 539.966431,187.700119 537.938049,195.444092 
	C528.425049,195.444092 519.306946,195.444092 509.444305,195.444092 
	C510.375000,191.933884 511.150940,188.789825 512.042236,185.678818 
	C522.889099,147.819107 533.808655,109.979980 544.513672,72.080261 
	C545.438049,68.807480 546.804932,67.975014 549.967896,68.048889 
	C558.622803,68.251045 567.286865,68.203819 575.944336,68.065437 
	C578.477295,68.024956 579.764709,68.624962 580.519470,71.289726 
	C591.973999,111.730423 603.546814,152.137604 615.082581,192.555313 
	C615.296326,193.304276 615.396301,194.085709 615.637756,195.294250 
	C605.981079,195.294250 596.760315,195.294250 587.158936,195.294250 
	C586.390625,192.173889 585.601746,188.969894 584.699036,185.368530 
M552.991577,133.439331 
	C552.297607,136.494232 551.603577,139.549118 550.838074,142.918854 
	C558.825745,142.918854 566.393127,142.918854 574.428955,142.918854 
	C570.672424,126.758049 567.006409,110.986778 563.340454,95.215515 
	C562.863892,95.197014 562.387390,95.178520 561.910889,95.160027 
	C558.998169,107.650078 556.085388,120.140137 552.991577,133.439331 
z"/>
<path fill="#404040" opacity="1.000000" stroke="none" 
	d="
M362.467041,162.587952 
	C353.644257,131.044022 344.992828,99.873100 336.241486,68.342270 
	C346.424500,68.342270 356.022125,68.342270 366.063324,68.342270 
	C373.588623,101.764404 381.096283,135.108170 388.603943,168.451935 
	C389.013123,168.463989 389.422302,168.476059 389.831512,168.488113 
	C397.345642,135.172791 404.859802,101.857468 412.413513,68.366592 
	C422.303101,68.366592 431.907257,68.366592 442.280090,68.366592 
	C440.939423,73.289146 439.694763,78.000275 438.373169,82.689728 
	C428.187439,118.831787 417.941772,154.957092 407.862000,191.128647 
	C406.875824,194.667664 405.288483,195.871292 401.619476,195.755981 
	C392.968781,195.484116 384.302704,195.599121 375.644958,195.714172 
	C373.004120,195.749252 371.502380,195.315048 370.737579,192.272385 
	C368.266998,182.444305 365.370636,172.723267 362.467041,162.587952 
z"/>
<path fill="#07A6E2" opacity="1.000000" stroke="none" 
	d="
M218.219788,231.104828 
	C218.219803,247.228058 218.219803,263.351288 218.219803,279.792786 
	C157.031769,279.792786 96.359863,279.792786 35.106503,279.792786 
	C35.106503,249.686584 35.106503,219.758240 35.103165,188.935791 
	C35.044327,186.303223 34.988823,184.564743 35.014809,182.378006 
	C35.096302,153.869354 35.096302,125.808945 35.096302,97.240784 
	C42.454887,97.240784 49.076450,97.259491 55.697880,97.237427 
	C79.327385,97.158707 102.956856,97.066124 126.963593,97.098450 
	C129.189148,97.147758 131.037430,97.077423 133.354126,97.101578 
	C149.589386,97.133118 165.356201,97.070175 181.546204,97.096954 
	C183.714188,97.125633 185.459000,97.064575 187.652405,97.093262 
	C198.005844,97.183014 207.910675,97.183014 218.046036,97.183014 
	C218.046036,103.382225 218.039093,108.704330 218.047165,114.026413 
	C218.103195,151.004105 218.162338,187.981796 218.127625,225.390594 
	C218.096436,227.582748 218.158112,229.343781 218.219788,231.104828 
M180.189209,103.637070 
	C164.411011,103.705719 148.632828,103.774368 132.206543,103.630295 
	C130.374176,103.702530 128.541794,103.774765 125.822624,103.667480 
	C97.775330,103.667480 69.728035,103.667480 41.743816,103.667480 
	C41.480045,104.590118 41.229324,105.056870 41.230076,105.523209 
	C41.271641,131.285751 41.334259,157.048264 41.212097,183.683548 
	C41.275253,185.432465 41.338409,187.181366 41.217777,189.858932 
	C41.217777,217.757385 41.217777,245.655853 41.217777,273.696686 
	C98.371613,273.696686 155.006348,273.696686 211.825897,273.696686 
	C211.825897,259.298096 211.825897,245.189621 211.987595,230.220230 
	C211.933746,228.474640 211.879913,226.729050 211.963867,224.057404 
	C211.963867,184.060593 211.963867,144.063782 211.963867,103.861885 
	C203.385956,103.861885 195.296310,103.861885 186.346649,103.645569 
	C184.605789,103.712151 182.864914,103.778740 180.189209,103.637070 
z"/>
<path fill="#404040" opacity="1.000000" stroke="none" 
	d="
M464.596283,68.624466 
	C473.919708,68.309738 482.894958,68.309738 492.226501,68.309738 
	C492.226501,110.575630 492.226501,152.776337 492.226501,195.324768 
	C482.907379,195.324768 473.708618,195.324768 463.890686,195.324768 
	C463.890686,193.282410 463.890686,191.503616 463.890686,189.724838 
	C463.890686,151.112503 463.886292,112.500175 463.905853,73.887848 
	C463.906708,72.238235 464.129028,70.588737 464.596283,68.624466 
z"/>
<path fill="#FF1212" opacity="1.000000" stroke="none" 
	d="
M218.673615,231.099594 
	C218.158112,229.343781 218.096436,227.582748 218.581360,225.395538 
	C247.168350,224.969360 275.208710,224.969360 303.105225,224.969360 
	C303.105225,167.796524 303.105225,111.411133 303.105225,54.760738 
	C301.677155,54.691822 300.546204,54.589806 299.415222,54.589542 
	C263.277832,54.581024 227.140457,54.577965 191.003082,54.599800 
	C189.687912,54.600594 188.372925,54.860332 186.637421,54.920593 
	C184.518036,54.852982 182.819092,54.864170 180.664444,54.753052 
	C164.521103,54.630745 148.833466,54.630745 132.885712,54.630745 
	C132.885712,69.157822 132.885712,83.082451 132.885712,97.007088 
	C131.037430,97.077423 129.189148,97.147758 127.001961,96.632034 
	C126.663063,80.175964 126.663063,64.305962 126.663063,47.986431 
	C145.221191,47.986431 163.120224,47.986431 181.452286,48.041321 
	C183.632477,48.027164 185.379623,47.958118 187.126785,47.889076 
	C191.116928,47.980610 195.107010,48.149200 199.097198,48.151596 
	C233.913895,48.172504 268.730591,48.163677 303.547272,48.163677 
	C305.344574,48.163677 307.141876,48.163673 309.233429,48.163673 
	C309.233429,109.298859 309.233429,170.017639 309.233429,231.094360 
	C279.050934,231.094360 249.089188,231.094360 218.673615,231.099594 
z"/>
<path fill="#FF6CAA" opacity="1.000000" stroke="none" 
	d="
M187.137421,47.427475 
	C185.379623,47.958118 183.632477,48.027164 181.483322,47.574860 
	C181.081329,35.474907 181.081329,23.896311 181.081329,12.394661 
	C123.885376,12.394661 67.494331,12.394661 11.142361,12.394661 
	C11.142361,69.322983 11.142361,125.868156 11.142361,182.826248 
	C19.333292,182.826248 27.133305,182.826248 34.933319,182.826248 
	C34.988823,184.564743 35.044327,186.303223 35.017273,188.466995 
	C24.958281,188.892273 14.981844,188.892273 4.620834,188.892273 
	C4.620834,127.952095 4.620834,67.386909 4.620834,6.397745 
	C65.157654,6.397745 125.709801,6.397745 187.148041,6.397745 
	C187.148041,19.824034 187.148041,33.394955 187.137421,47.427475 
z"/>
<path fill="#FAFAFA" opacity="1.000000" stroke="none" 
	d="
M553.082153,133.034760 
	C556.085388,120.140137 558.998169,107.650078 561.910889,95.160027 
	C562.387390,95.178520 562.863892,95.197014 563.340454,95.215515 
	C567.006409,110.986778 570.672424,126.758049 574.428955,142.918854 
	C566.393127,142.918854 558.825745,142.918854 550.838074,142.918854 
	C551.603577,139.549118 552.297607,136.494232 553.082153,133.034760 
z"/>
<path fill="#FFFFFF" opacity="1.000000" stroke="none" 
	d="
M187.057846,54.999397 
	C188.372925,54.860332 189.687912,54.600594 191.003082,54.599800 
	C227.140457,54.577965 263.277832,54.581024 299.415222,54.589542 
	C300.546204,54.589806 301.677155,54.691822 303.105225,54.760738 
	C303.105225,111.411133 303.105225,167.796524 303.105225,224.969360 
	C275.208710,224.969360 247.168350,224.969360 218.674240,224.964417 
	C218.162338,187.981796 218.103195,151.004105 218.047165,114.026413 
	C218.039093,108.704330 218.046036,103.382225 218.046036,97.183014 
	C207.910675,97.183014 198.005844,97.183014 187.632751,96.624390 
	C187.128937,82.376976 187.093399,68.688187 187.057846,54.999397 
z"/>
<path fill="#FFFEFE" opacity="1.000000" stroke="none" 
	d="
M35.014809,182.378006 
	C27.133305,182.826248 19.333292,182.826248 11.142361,182.826248 
	C11.142361,125.868156 11.142361,69.322983 11.142361,12.394661 
	C67.494331,12.394661 123.885376,12.394661 181.081329,12.394661 
	C181.081329,23.896311 181.081329,35.474907 181.050293,47.519966 
	C163.120224,47.986431 145.221191,47.986431 126.663063,47.986431 
	C126.663063,64.305962 126.663063,80.175964 126.624695,96.512375 
	C102.956856,97.066124 79.327385,97.158707 55.697880,97.237427 
	C49.076450,97.259491 42.454887,97.240784 35.096302,97.240784 
	C35.096302,125.808945 35.096302,153.869354 35.014809,182.378006 
z"/>
<path fill="#FFFFFF" opacity="1.000000" stroke="none" 
	d="
M211.825897,231.081131 
	C211.825897,245.189621 211.825897,259.298096 211.825897,273.696686 
	C155.006348,273.696686 98.371613,273.696686 41.217777,273.696686 
	C41.217777,245.655853 41.217777,217.757385 41.750862,189.398270 
	C51.597771,188.936279 60.911697,188.906158 70.225395,188.939697 
	C89.014168,189.007339 107.802811,189.109619 126.647171,189.650085 
	C126.702843,203.678574 126.702843,217.254578 126.702843,231.081131 
	C155.551193,231.081131 183.688538,231.081131 211.825897,231.081131 
z"/>
<path fill="#FDFEFE" opacity="1.000000" stroke="none" 
	d="
M41.394749,182.810776 
	C41.334259,157.048264 41.271641,131.285751 41.230076,105.523209 
	C41.229324,105.056870 41.480045,104.590118 41.743816,103.667480 
	C69.728035,103.667480 97.775330,103.667480 126.271164,104.238449 
	C126.644371,130.780411 126.569046,156.751404 126.059074,182.745544 
	C97.547874,182.782715 69.471313,182.796753 41.394749,182.810776 
z"/>
<path fill="#FEFEFF" opacity="1.000000" stroke="none" 
	d="
M187.206665,103.861885 
	C195.296310,103.861885 203.385956,103.861885 211.963867,103.861885 
	C211.963867,144.063782 211.963867,184.060593 211.438034,224.522797 
	C184.975067,224.988205 159.037933,224.988205 133.022690,224.988205 
	C133.022690,212.600891 133.022690,200.795151 133.488708,188.958359 
	C151.539322,188.927307 169.123947,188.927307 187.206665,188.927307 
	C187.206665,160.078644 187.206665,131.970261 187.206665,103.861885 
z"/>
<path fill="#FDFEFF" opacity="1.000000" stroke="none" 
	d="
M132.854614,103.843010 
	C148.632828,103.774368 164.411011,103.705719 180.648041,104.221985 
	C181.106888,130.672684 181.106888,156.538452 181.106888,182.892044 
	C164.625076,182.892044 148.865204,182.892044 133.009399,182.438751 
	C132.893845,155.937988 132.874237,129.890503 132.854614,103.843010 
z"/>
<path fill="#FFFFFF" opacity="1.000000" stroke="none" 
	d="
M133.354126,97.101578 
	C132.885712,83.082451 132.885712,69.157822 132.885712,54.630745 
	C148.833466,54.630745 164.521103,54.630745 180.659424,55.230576 
	C181.114410,69.556015 181.118729,83.281616 181.123032,97.007225 
	C165.356201,97.070175 149.589386,97.133118 133.354126,97.101578 
z"/>
<path fill="#FE0607" opacity="1.000000" stroke="none" 
	d="
M132.530579,103.736649 
	C132.874237,129.890503 132.893845,155.937988 132.937820,182.871460 
	C132.982346,185.501450 133.002518,187.245422 133.022690,188.989410 
	C133.022690,200.795151 133.022690,212.600891 133.022690,224.988205 
	C159.037933,224.988205 184.975067,224.988205 211.369141,224.985840 
	C211.879913,226.729050 211.933746,228.474640 211.906738,230.650681 
	C183.688538,231.081131 155.551193,231.081131 126.702843,231.081131 
	C126.702843,217.254578 126.702843,203.678574 126.722488,189.193298 
	C126.659325,186.430145 126.576523,184.576263 126.493713,182.722397 
	C126.569046,156.751404 126.644371,130.780411 126.714561,104.328217 
	C128.541794,103.774765 130.374176,103.702530 132.530579,103.736649 
z"/>
<path fill="#FE6CAA" opacity="1.000000" stroke="none" 
	d="
M133.488708,188.958359 
	C133.002518,187.245422 132.982346,185.501450 133.033752,183.324753 
	C148.865204,182.892044 164.625076,182.892044 181.106888,182.892044 
	C181.106888,156.538452 181.106888,130.672684 181.115479,104.326111 
	C182.864914,103.778740 184.605789,103.712151 186.776657,103.753723 
	C187.206665,131.970261 187.206665,160.078644 187.206665,188.927307 
	C169.123947,188.927307 151.539322,188.927307 133.488708,188.958359 
z"/>
<path fill="#FE77A9" opacity="1.000000" stroke="none" 
	d="
M126.059082,182.745544 
	C126.576523,184.576263 126.659325,186.430145 126.666824,188.740814 
	C107.802811,189.109619 89.014168,189.007339 70.225395,188.939697 
	C60.911697,188.906158 51.597771,188.936279 41.842758,188.933945 
	C41.338409,187.181366 41.275253,185.432465 41.303421,183.247162 
	C69.471313,182.796753 97.547874,182.782715 126.059082,182.745544 
z"/>
<path fill="#FF6FA3" opacity="1.000000" stroke="none" 
	d="
M181.546204,97.096954 
	C181.118729,83.281616 181.114410,69.556015 181.115112,55.352886 
	C182.819092,54.864170 184.518036,54.852982 186.637421,54.920593 
	C187.093399,68.688187 187.128937,82.376976 187.184143,96.534645 
	C185.459000,97.064575 183.714188,97.125633 181.546204,97.096954 
z"/>
</svg>