<svg version="1.1" id="Layer_1" xmlns="http://www.w3.org/2000/svg" xmlns:xlink="http://www.w3.org/1999/xlink" x="0px" y="0px"
	 width="100%" viewBox="0 0 315 283" enable-background="new 0 0 315 283" xml:space="preserve">
<path fill="#FFFFFF" opacity="1.000000" stroke="none" 
	d="
M316.000000,100.000000 
	C316.000000,161.666656 316.000000,222.833313 316.000000,284.000000 
	C211.000031,284.000000 106.000061,284.000000 1.000067,284.000000 
	C1.000045,189.666718 1.000045,95.333427 1.000022,1.000105 
	C105.999939,1.000070 210.999878,1.000070 315.999908,1.000035 
	C316.000000,33.833332 316.000000,66.666664 316.000000,100.000000 
M220.012894,230.619278 
	C220.012894,230.619278 220.025162,230.207260 220.951141,230.077301 
	C250.710419,230.077301 280.469696,230.077301 310.232025,230.077301 
	C310.328735,228.796539 310.422058,228.136749 310.422150,227.476959 
	C310.430389,168.851456 310.390686,110.225861 310.520203,51.600636 
	C310.529297,47.480309 308.795593,47.139565 305.446594,47.151421 
	C276.300751,47.254635 247.154373,47.232819 218.008209,47.198925 
	C208.022141,47.187313 198.036224,47.036148 188.118210,46.019901 
	C188.118210,32.444885 188.118210,18.869871 188.118210,5.392896 
	C126.744713,5.392896 66.197197,5.392896 5.605748,5.392896 
	C5.605748,66.362267 5.605748,126.926506 5.605748,187.830704 
	C15.921597,187.830704 25.892914,187.830704 36.106346,188.762833 
	C36.106346,218.706146 36.106346,248.649460 36.106346,278.751038 
	C97.376534,278.751038 158.065369,278.751038 219.189056,278.751038 
	C219.189056,262.931213 219.189056,247.459137 219.555054,231.757812 
	C219.774338,231.558746 219.923874,231.316605 220.012894,230.619278 
z"/>
<path fill="#00A4E1" opacity="1.000000" stroke="none" 
	d="
M219.189056,231.987061 
	C219.189056,247.459137 219.189056,262.931213 219.189056,278.751038 
	C158.065369,278.751038 97.376534,278.751038 36.106346,278.751038 
	C36.106346,248.649460 36.106346,218.706146 36.038322,187.897720 
	C36.037666,185.686462 36.105038,184.340332 36.327911,182.879028 
	C36.322399,182.502762 36.161388,182.241684 36.001167,181.987656 
	C36.001953,181.994720 36.015324,181.997009 36.031990,181.753784 
	C36.048653,181.510544 36.012783,181.024429 36.073433,180.557495 
	C36.181767,152.410278 36.229454,124.729996 36.446213,96.981224 
	C36.835896,96.781349 36.980904,96.592041 37.514137,96.312492 
	C67.574570,96.256508 97.171173,96.232864 126.898102,96.436188 
	C127.355171,96.720901 127.681900,96.778648 128.376724,96.910271 
	C130.356644,96.661591 131.968491,96.339027 134.070618,96.114037 
	C150.350845,96.217354 166.140793,96.223099 181.962982,96.188522 
	C181.995209,96.148201 181.969193,96.048279 181.988251,96.316742 
	C182.333420,96.667809 182.659561,96.750412 183.374573,96.903076 
	C185.247482,96.723221 186.731476,96.473297 188.670258,96.236458 
	C198.913147,96.249535 208.701279,96.249535 219.032852,96.249535 
	C219.032852,98.677788 219.030640,100.629082 219.033157,102.580376 
	C219.084839,142.722610 219.137054,182.864838 219.123993,223.253952 
	C219.094757,223.667221 219.130692,223.833618 219.091171,224.422745 
	C219.062744,226.559387 219.109787,228.273315 219.098999,230.239807 
	C219.082962,230.659973 219.124771,230.827576 219.112579,231.244492 
	C219.102081,231.658249 219.145569,231.822662 219.189056,231.987061 
M42.026367,182.843231 
	C42.100071,184.537460 42.173779,186.231689 42.176979,188.869629 
	C42.176979,216.777634 42.176979,244.685654 42.176979,272.679321 
	C99.402214,272.679321 156.058167,272.679321 212.833160,272.679321 
	C212.833160,258.570068 212.833160,244.780746 212.946716,230.495667 
	C212.908966,230.330399 212.871201,230.165146 212.984360,229.152954 
	C212.934036,227.435318 212.883713,225.717697 212.974945,223.072342 
	C212.974945,183.189209 212.974945,143.306091 212.974945,103.165794 
	C204.391815,103.165794 196.282883,103.165794 187.313843,103.027916 
	C185.605362,103.054642 183.896896,103.081367 181.494904,102.618004 
	C175.368317,102.554413 169.240921,102.396393 163.115326,102.448715 
	C153.198105,102.533417 143.282059,102.756248 132.584869,102.994598 
	C130.969086,103.051765 129.353287,103.108932 127.005508,102.849701 
	C126.198326,102.709343 125.391235,102.446960 124.583939,102.446320 
	C98.305672,102.425430 72.027382,102.423546 45.749134,102.451645 
	C44.638165,102.452835 43.527531,102.767296 42.262653,102.959183 
	C42.262653,129.143448 42.262653,155.076584 42.068642,181.491425 
	C42.101288,181.661316 42.133934,181.831207 42.026367,182.843231 
z"/>
<path fill="#FF0000" opacity="1.000000" stroke="none" 
	d="
M219.156830,229.987244 
	C219.109787,228.273315 219.062744,226.559387 219.302704,224.414276 
	C219.589722,223.983109 219.985703,223.833176 220.449890,223.908310 
	C248.650330,223.983444 276.386566,223.983444 304.307129,223.983444 
	C304.307129,166.956741 304.307129,110.438683 304.307129,53.481350 
	C303.165680,53.481350 302.200897,53.481350 301.236115,53.481346 
	C264.618591,53.481262 228.001083,53.476215 191.383591,53.504684 
	C190.268295,53.505550 189.153244,53.855751 187.610306,54.026508 
	C185.474976,54.006233 183.767410,54.002529 181.706818,53.782516 
	C165.622635,53.566204 149.891495,53.566204 133.580322,53.566204 
	C133.580322,68.117317 133.580322,82.066895 133.580322,96.016464 
	C131.968491,96.339027 130.356644,96.661591 128.341400,96.649734 
	C127.844604,96.166832 127.751221,96.018333 127.692696,95.410957 
	C127.727562,79.195778 127.727562,63.439480 127.727562,47.375027 
	C146.137115,47.375027 164.056747,47.375027 182.223206,47.640327 
	C184.330109,47.586662 186.190170,47.267704 188.050247,46.948742 
	C198.036224,47.036148 208.022141,47.187313 218.008209,47.198925 
	C247.154373,47.232819 276.300751,47.254635 305.446594,47.151421 
	C308.795593,47.139565 310.529297,47.480309 310.520203,51.600636 
	C310.390686,110.225861 310.430389,168.851456 310.422150,227.476959 
	C310.422058,228.136749 310.328735,228.796539 310.232025,230.077301 
	C280.469696,230.077301 250.710419,230.077301 220.280365,230.050415 
	C219.609589,230.023544 219.156830,229.987244 219.156830,229.987244 
z"/>
<path fill="#FF66A6" opacity="1.000000" stroke="none" 
	d="
M188.084229,46.484322 
	C186.190170,47.267704 184.330109,47.586662 182.276733,47.148792 
	C182.083450,34.782791 182.083450,23.173624 182.083450,11.412250 
	C124.930252,11.412250 68.291519,11.412250 11.575356,11.412250 
	C11.575356,68.370293 11.575356,124.915588 11.575356,182.373795 
	C19.612804,181.945389 27.319813,181.534607 35.092255,181.360168 
	C35.367584,181.892532 35.653461,182.026031 36.015324,181.997009 
	C36.015324,181.997009 36.001953,181.994720 36.021088,182.245041 
	C36.084286,182.661621 36.128345,182.827896 36.172409,182.994186 
	C36.105038,184.340332 36.037666,185.686462 35.917263,187.431656 
	C25.892914,187.830704 15.921597,187.830704 5.605748,187.830704 
	C5.605748,126.926506 5.605748,66.362267 5.605748,5.392896 
	C66.197197,5.392896 126.744713,5.392896 188.118210,5.392896 
	C188.118210,18.869871 188.118210,32.444885 188.084229,46.484322 
z"/>
<path fill="#FFE3E3" opacity="1.000000" stroke="none" 
	d="
M219.098999,230.239807 
	C219.156830,229.987244 219.609589,230.023544 219.817383,230.115402 
	C220.025162,230.207260 220.012894,230.619278 219.799133,230.812866 
	C219.585388,231.006439 219.166565,230.995163 219.166565,230.995163 
	C219.124771,230.827576 219.082962,230.659973 219.098999,230.239807 
z"/>
<path fill="#EFF9FD" opacity="1.000000" stroke="none" 
	d="
M219.112579,231.244492 
	C219.166565,230.995163 219.585388,231.006439 219.794525,231.018921 
	C219.923874,231.316605 219.774338,231.558746 219.372055,231.872437 
	C219.145569,231.822662 219.102081,231.658249 219.112579,231.244492 
z"/>
<path fill="#FFFFFF" opacity="1.000000" stroke="none" 
	d="
M188.038086,54.043083 
	C189.153244,53.855751 190.268295,53.505550 191.383591,53.504684 
	C228.001083,53.476215 264.618591,53.481262 301.236115,53.481346 
	C302.200897,53.481350 303.165680,53.481350 304.307129,53.481350 
	C304.307129,110.438683 304.307129,166.956741 304.307129,223.983444 
	C276.386566,223.983444 248.650330,223.983444 220.360519,223.732620 
	C219.649353,223.260666 219.443420,223.102417 219.189163,223.007065 
	C219.137054,182.864838 219.084839,142.722610 219.033157,102.580376 
	C219.030640,100.629082 219.032852,98.677788 219.032852,96.249535 
	C208.701279,96.249535 198.913147,96.249535 188.643539,95.752853 
	C188.120743,81.518478 188.079407,67.780785 188.038086,54.043083 
z"/>
<path fill="#FFFFFF" opacity="1.000000" stroke="none" 
	d="
M35.026821,181.123810 
	C27.319813,181.534607 19.612804,181.945389 11.575356,182.373795 
	C11.575356,124.915588 11.575356,68.370293 11.575356,11.412250 
	C68.291519,11.412250 124.930252,11.412250 182.083450,11.412250 
	C182.083450,23.173624 182.083450,34.782791 182.029907,46.883492 
	C164.056747,47.375027 146.137115,47.375027 127.727562,47.375027 
	C127.727562,63.439480 127.727562,79.195778 127.452896,95.450439 
	C127.178238,95.948799 126.767776,96.209221 126.767776,96.209221 
	C97.171173,96.232864 67.574570,96.256508 37.265820,96.230743 
	C36.461494,96.470795 36.369316,96.760246 36.277138,97.049706 
	C36.229454,124.729996 36.181767,152.410278 35.824024,180.553558 
	C35.513966,181.016525 35.026821,181.123810 35.026821,181.123810 
z"/>
<path fill="#FFFFFF" opacity="1.000000" stroke="none" 
	d="
M212.833160,230.991440 
	C212.833160,244.780746 212.833160,258.570068 212.833160,272.679321 
	C156.058167,272.679321 99.402214,272.679321 42.176979,272.679321 
	C42.176979,244.685654 42.176979,216.777634 42.664631,188.389557 
	C71.111977,187.908600 99.071671,187.907730 127.332535,188.209961 
	C127.633713,202.245834 127.633713,215.978638 127.633713,230.207764 
	C156.194885,230.207764 184.093964,230.207764 212.087555,230.381607 
	C212.357742,230.762558 212.574768,230.907883 212.833160,230.991440 
z"/>
<path fill="#FFFFFF" opacity="1.000000" stroke="none" 
	d="
M42.262653,181.009705 
	C42.262653,155.076584 42.262653,129.143448 42.262653,102.959183 
	C43.527531,102.767296 44.638165,102.452835 45.749134,102.451645 
	C72.027382,102.423546 98.305672,102.425430 124.583939,102.446320 
	C125.391235,102.446960 126.198326,102.709343 127.372086,103.464890 
	C127.738815,128.099258 127.759659,152.118484 127.699562,176.137527 
	C127.694786,178.046631 127.129562,179.954330 126.367508,181.868027 
	C98.283989,181.832565 70.657761,181.791748 42.943306,181.590546 
	C42.700005,181.230301 42.502533,181.090149 42.262653,181.009705 
z"/>
<path fill="#FFFFFF" opacity="1.000000" stroke="none" 
	d="
M188.173935,103.165794 
	C196.282883,103.165794 204.391815,103.165794 212.974945,103.165794 
	C212.974945,143.306091 212.974945,183.189209 212.446716,223.536194 
	C185.931564,224.000046 159.944641,224.000046 134.055740,224.000046 
	C134.055740,211.541031 134.055740,199.766495 134.518768,187.952881 
	C152.528992,187.913818 170.076172,187.913818 188.173935,187.913818 
	C188.173935,159.216110 188.173935,131.190948 188.173935,103.165794 
z"/>
<path fill="#FFFFFF" opacity="1.000000" stroke="none" 
	d="
M133.365524,102.920761 
	C143.282059,102.756248 153.198105,102.533417 163.115326,102.448715 
	C169.240921,102.396393 175.368317,102.554413 181.813721,103.323166 
	C182.132538,129.800903 182.132538,155.573486 182.132538,181.905182 
	C165.699509,181.905182 149.910629,181.905182 134.012177,181.453735 
	C133.879486,156.770294 133.866150,132.538300 133.813324,108.306366 
	C133.809402,106.510841 133.521439,104.715950 133.365524,102.920761 
z"/>
<path fill="#FFFFFF" opacity="1.000000" stroke="none" 
	d="
M134.070618,96.114037 
	C133.580322,82.066895 133.580322,68.117317 133.580322,53.566204 
	C149.891495,53.566204 165.622635,53.566204 181.729401,54.249630 
	C182.046921,68.698318 181.988831,82.463585 181.930740,96.228851 
	C166.140793,96.223099 150.350845,96.217354 134.070618,96.114037 
z"/>
<path fill="#FF0000" opacity="1.000000" stroke="none" 
	d="
M132.975189,102.957680 
	C133.521439,104.715950 133.809402,106.510841 133.813324,108.306366 
	C133.866150,132.538300 133.879486,156.770294 133.874146,181.797241 
	C133.915710,184.392105 133.985718,186.192032 134.055740,187.991959 
	C134.055740,199.766495 134.055740,211.541031 134.055740,224.000046 
	C159.944641,224.000046 185.931564,224.000046 212.375946,224.000061 
	C212.883713,225.717697 212.934036,227.435318 212.689117,229.589203 
	C212.393860,230.025452 211.993027,230.207764 211.993027,230.207764 
	C184.093964,230.207764 156.194885,230.207764 127.633713,230.207764 
	C127.633713,215.978638 127.633713,202.245834 127.334602,187.779633 
	C126.965256,185.318375 126.895020,183.590530 126.824791,181.862686 
	C127.129562,179.954330 127.694786,178.046631 127.699562,176.137527 
	C127.759659,152.118484 127.738815,128.099258 127.738083,103.623093 
	C129.353287,103.108932 130.969086,103.051765 132.975189,102.957680 
z"/>
<path fill="#FF66A6" opacity="1.000000" stroke="none" 
	d="
M134.518768,187.952881 
	C133.985718,186.192032 133.915710,184.392105 133.983734,182.248688 
	C149.910629,181.905182 165.699509,181.905182 182.132538,181.905182 
	C182.132538,155.573486 182.132538,129.800903 182.160477,103.568207 
	C183.896896,103.081367 185.605362,103.054642 187.743896,103.096855 
	C188.173935,131.190948 188.173935,159.216110 188.173935,187.913818 
	C170.076172,187.913818 152.528992,187.913818 134.518768,187.952881 
z"/>
<path fill="#FF66A6" opacity="1.000000" stroke="none" 
	d="
M126.367508,181.868027 
	C126.895020,183.590530 126.965256,185.318375 127.033432,187.476547 
	C99.071671,187.907730 71.111977,187.908600 42.699883,187.917694 
	C42.173779,186.231689 42.100071,184.537460 42.321526,182.390106 
	C42.616680,181.936996 43.031532,181.750946 43.031532,181.750946 
	C70.657761,181.791748 98.283989,181.832565 126.367508,181.868027 
z"/>
<path fill="#FF66A6" opacity="1.000000" stroke="none" 
	d="
M181.962982,96.188522 
	C181.988831,82.463585 182.046921,68.698318 182.082428,54.465942 
	C183.767410,54.002529 185.474976,54.006233 187.610291,54.026512 
	C188.079407,67.780785 188.120743,81.518478 188.188782,95.739777 
	C186.731476,96.473297 185.247482,96.723221 183.258743,96.709518 
	C182.551819,96.196114 182.290207,96.063576 181.969193,96.048279 
	C181.969193,96.048279 181.995209,96.148201 181.962982,96.188522 
z"/>
<path fill="#FF8CBC" opacity="1.000000" stroke="none" 
	d="
M181.988251,96.316742 
	C182.290207,96.063576 182.551819,96.196114 182.869843,96.639465 
	C182.659561,96.750412 182.333420,96.667809 181.988251,96.316742 
z"/>
<path fill="#FFA7A7" opacity="1.000000" stroke="none" 
	d="
M126.898102,96.436188 
	C126.767776,96.209221 127.178238,95.948799 127.418030,95.909317 
	C127.751221,96.018333 127.844604,96.166832 127.973312,96.575851 
	C127.681900,96.778648 127.355171,96.720901 126.898102,96.436188 
z"/>
<path fill="#40BBE8" opacity="1.000000" stroke="none" 
	d="
M36.446213,96.981224 
	C36.369316,96.760246 36.461494,96.470795 36.801994,96.263092 
	C36.980904,96.592041 36.835896,96.781349 36.446213,96.981224 
z"/>
<path fill="#40BBE8" opacity="1.000000" stroke="none" 
	d="
M35.092255,181.360168 
	C35.026821,181.123810 35.513966,181.016525 35.763374,181.020477 
	C36.012783,181.024429 36.048653,181.510544 36.031990,181.753784 
	C35.653461,182.026031 35.367584,181.892532 35.092255,181.360168 
z"/>
<path fill="#FFD9E9" opacity="1.000000" stroke="none" 
	d="
M42.943306,181.590546 
	C43.031532,181.750946 42.616680,181.936996 42.391632,181.969055 
	C42.133934,181.831207 42.101288,181.661316 42.165649,181.250565 
	C42.502533,181.090149 42.700005,181.230301 42.943306,181.590546 
z"/>
<path fill="#40BBE8" opacity="1.000000" stroke="none" 
	d="
M36.327911,182.879028 
	C36.128345,182.827896 36.084286,182.661621 36.020302,182.237976 
	C36.161388,182.241684 36.322399,182.502762 36.327911,182.879028 
z"/>
<path fill="#EFF9FD" opacity="1.000000" stroke="none" 
	d="
M219.123993,223.253952 
	C219.443420,223.102417 219.649353,223.260666 219.896332,223.657486 
	C219.985703,223.833176 219.589722,223.983109 219.378174,223.991577 
	C219.130692,223.833618 219.094757,223.667221 219.123993,223.253952 
z"/>
<path fill="#FFE3E3" opacity="1.000000" stroke="none" 
	d="
M212.087555,230.381607 
	C211.993027,230.207764 212.393860,230.025452 212.613647,230.012665 
	C212.871201,230.165146 212.908966,230.330399 212.889938,230.743561 
	C212.574768,230.907883 212.357742,230.762558 212.087555,230.381607 
z"/>
</svg>